<?xml version="1.0" encoding="utf-8"?>
<svg version="1.1" id="Layer_1" x="0px" y="0px" width="100%" viewBox="0 0 512 512" enable-background="new 0 0 512 512" xmlns="http://www.w3.org/2000/svg">
  <path fill="#000000" opacity="1.000000" stroke="none" d=" M513.000000,15.527334 C487.357727,41.023605 461.715485,66.047218 436.073212,91.070824 C436.492981,91.651520 436.912781,92.232208 437.332581,92.812897 C438.716614,92.875267 440.100616,92.990257 441.484741,92.991783 C454.139801,93.005760 466.794983,92.968292 479.449860,93.014145 C485.290192,93.035309 488.994019,96.971786 489.000000,102.972008 C489.005981,108.974792 485.301666,112.975319 479.505859,112.984573 C456.193970,113.021797 432.881958,113.014236 409.570038,112.988297 C404.748199,112.982925 401.022003,109.362877 401.015259,104.629845 C400.981842,81.151428 400.969482,57.672871 401.022217,34.194523 C401.034882,28.543644 405.211151,24.938934 411.327576,25.000008 C417.055023,25.057196 420.960632,28.745300 420.982208,34.350178 C421.036011,48.336819 420.999969,62.323803 420.999969,77.394867 C422.584686,75.854019 423.662079,74.831627 424.712097,73.781868 C446.850342,51.648949 468.971924,29.499321 491.143646,7.399960 C493.217407,5.332944 495.603912,3.579638 497.922607,1.340334 C502.924530,1.000000 507.849030,1.000000 513.000000,1.000000 C513.000000,5.683316 513.000000,10.368995 513.000000,15.527334 z"/>
  <path fill="#000000" opacity="1.000000" stroke="none" d=" M15.527336,1.000000 C41.020741,26.645138 66.041481,52.290276 91.062225,77.935410 C91.645805,77.512749 92.229393,77.090088 92.812973,76.667427 C92.875313,75.283363 92.990265,73.899361 92.991798,72.515228 C93.005760,59.860180 92.968285,47.204994 93.014145,34.550095 C93.035309,28.709818 96.971817,25.005980 102.972038,25.000006 C108.974762,24.994030 112.975327,28.698406 112.984581,34.494137 C113.021797,57.806038 113.014236,81.118042 112.988297,104.429970 C112.982925,109.251762 109.362831,112.977997 104.629799,112.984734 C81.151375,113.018158 57.672810,113.030556 34.194454,112.977814 C28.543539,112.965126 24.938911,108.788857 25.000002,102.672325 C25.057205,96.944885 28.745312,93.039330 34.350277,93.017761 C48.336922,92.963936 62.323910,93.000023 77.394707,93.000023 C75.853996,91.415359 74.831589,90.337898 73.781784,89.287834 C51.648872,67.149551 29.499245,45.027943 7.399864,22.856243 C5.332878,20.782492 3.579587,18.396069 1.340324,16.077408 C1.000000,11.075478 1.000000,6.150956 1.000000,1.000000 C5.683317,1.000000 10.368995,1.000000 15.527336,1.000000 z"/>
  <path fill="#000000" opacity="1.000000" stroke="none" d=" M0.999964,498.472626 C26.645092,472.979218 52.290257,447.958496 77.935417,422.937805 C77.512756,422.354187 77.090088,421.770599 76.667419,421.187012 C75.283356,421.124664 73.899353,421.009735 72.515221,421.008209 C59.860172,420.994263 47.204983,421.031708 34.550083,420.985840 C28.709826,420.964691 25.005981,417.028198 25.000008,411.027954 C24.994028,405.025269 28.698456,401.024658 34.494133,401.015381 C57.806038,400.978180 81.118050,400.985748 104.429977,401.011688 C109.251785,401.017059 112.977997,404.637146 112.984741,409.370209 C113.018158,432.848633 113.030563,456.327179 112.977814,479.805542 C112.965118,485.456482 108.788887,489.061127 102.672295,489.000000 C96.944862,488.942780 93.039330,485.254669 93.017761,479.649689 C92.963943,465.663055 93.000023,451.676025 93.000023,436.605438 C91.415405,438.146057 90.337883,439.168427 89.287781,440.218292 C67.149498,462.351196 45.027878,484.500824 22.856188,506.600189 C20.782448,508.667145 18.396061,510.420441 16.077417,512.659668 C11.075477,513.000000 6.150953,513.000000 1.000000,513.000000 C1.000000,508.316681 1.000000,503.630981 0.999964,498.472626 z"/>
  <path fill="#000000" opacity="1.000000" stroke="none" d=" M498.472656,513.000000 C487.744568,502.911713 477.452972,492.859802 467.248840,482.719910 C462.097778,477.601349 461.364044,470.536957 465.326202,466.172791 C469.070435,462.048553 476.353943,461.146088 480.744293,465.422546 C491.546997,475.945007 501.828339,487.002716 512.659668,497.922607 C513.000000,502.924530 513.000000,507.849030 513.000000,513.000000 C508.316681,513.000000 503.630981,513.000000 498.472656,513.000000 z"/>
  <path fill="#010101" opacity="1.000000" stroke="none" d=" M70.980911,234.133270 C76.798500,221.123962 85.180023,210.697968 97.537086,204.137878 C103.840027,200.791794 110.730705,198.552750 116.908188,195.998383 C114.905190,190.157120 111.399017,183.601318 110.531509,176.713181 C107.946465,156.187500 111.697960,133.903336 134.820816,121.620712 C152.084961,112.450165 169.223801,113.711311 184.706329,124.615356 C196.867767,133.180420 204.142792,145.648849 204.012024,161.361877 C203.933350,170.815598 204.849457,180.390976 200.027359,189.169250 C198.718857,191.551270 197.556091,194.013351 196.280441,196.529434 C200.757217,197.732880 205.139130,198.910812 209.564148,200.100357 C211.824585,168.586258 234.082169,153.284698 257.020081,153.300385 C279.850677,153.315994 302.117096,168.431900 304.450775,200.075516 C308.818939,198.918457 313.158295,197.769012 316.973175,196.758514 C314.804749,190.574432 311.402191,184.325272 310.514282,177.737213 C306.781342,150.039597 314.779419,126.184441 344.427246,117.578758 C369.980408,110.161613 395.631927,124.232018 402.592682,151.694931 C405.968719,165.014801 405.490570,178.941132 398.674194,191.739944 C397.853790,193.280411 396.845978,194.721100 395.716644,196.544495 C409.954559,199.131241 421.945129,205.423065 431.388794,215.964844 C440.935577,226.621719 446.992004,238.906952 446.997894,253.597015 C447.010590,285.262878 447.001831,316.928711 447.001770,348.594574 C447.001770,357.403625 443.322601,360.997162 434.254028,360.999390 C407.254730,361.006073 380.255402,361.001801 353.256104,361.001801 C351.634155,361.001801 350.012238,361.001801 348.001801,361.001801 C348.001801,369.015350 347.912720,376.638763 348.024414,384.259216 C348.163086,393.720551 343.262543,398.247864 334.123962,398.182159 C282.294617,397.809570 230.460434,397.863068 178.630188,398.164734 C171.581802,398.205750 166.057358,394.107208 166.007965,385.513947 C165.962128,377.535767 165.998199,369.557129 165.998199,361.001801 C164.027679,361.001801 162.263031,361.001801 160.498398,361.001801 C133.665756,361.001801 106.833107,361.004242 80.000458,361.000519 C70.514099,360.999176 66.998177,357.570984 66.998169,348.349060 C66.998154,316.516541 66.793930,284.681580 67.176193,252.853638 C67.249725,246.731400 69.624786,240.636795 70.980911,234.133270 M256.500000,377.872375 C267.604431,377.872375 278.708862,377.872375 290.221985,377.872375 C290.221985,375.409332 290.221985,373.602142 290.221985,371.794952 C290.222046,352.470886 290.198486,333.146729 290.253174,313.822815 C290.259705,311.514221 290.425842,309.140320 290.983093,306.913055 C292.066010,302.584869 295.014893,300.155426 299.506805,299.814392 C306.067810,299.316193 310.168396,303.564423 310.197327,311.202301 C310.274292,331.525635 310.226044,351.849396 310.227539,372.173004 C310.227692,373.940186 310.227539,375.707367 310.227539,377.557129 C316.173706,377.557129 321.412903,377.557129 327.064240,377.557129 C327.064240,375.782318 327.064240,374.312073 327.064209,372.841797 C327.063812,347.520599 327.117340,322.199249 327.047821,296.878235 C326.977448,271.254852 309.704041,254.026932 284.030487,253.931412 C266.205963,253.865097 248.380905,253.888153 230.556198,253.924988 C203.996017,253.979874 186.971329,271.103455 186.941956,297.790802 C186.914627,322.612213 186.935837,347.433655 186.935669,372.255096 C186.935654,374.011627 186.935669,375.768188 186.935669,377.450012 C192.881165,377.450012 198.091553,377.450012 203.714096,377.450012 C203.714096,367.229584 203.702057,357.426483 203.717087,347.623413 C203.736771,334.797424 203.636307,321.968750 203.876373,309.146667 C203.978592,303.685852 207.890518,300.033173 212.973129,299.778931 C218.324905,299.511230 222.102234,302.454742 223.170868,307.924652 C223.550034,309.865540 223.690933,311.880920 223.694717,313.862762 C223.731934,333.353363 223.709961,352.844025 223.729889,372.334686 C223.731674,374.081085 223.909500,375.827301 224.022003,377.872314 C234.887512,377.872314 245.193756,377.872314 256.500000,377.872375 M216.854996,230.678619 C208.457077,219.884018 196.774155,216.412231 183.816925,216.276215 C165.995453,216.089157 148.169739,216.138474 130.347733,216.297333 C126.229958,216.334030 121.988976,216.739044 118.028313,217.805252 C98.762321,222.991684 87.127007,238.305481 87.030800,258.585297 C86.908325,284.403717 86.995995,310.223114 87.014999,336.042114 C87.015945,337.318298 87.226273,338.594391 87.337273,339.849854 C92.915489,339.849854 98.158958,339.849854 103.871902,339.849854 C103.871902,337.752960 103.868149,335.953918 103.872559,334.154877 C103.890526,326.826111 103.739090,319.491486 103.987061,312.170471 C104.172447,306.697052 107.840614,303.047638 112.981247,302.541473 C117.967209,302.050537 122.144951,305.179657 123.319153,310.556641 C123.774170,312.640350 123.835800,314.837219 123.852776,316.984344 C123.912857,324.584442 123.876183,332.185242 123.876183,339.760620 C138.577484,339.760620 152.610321,339.760620 166.933624,339.760620 C166.933624,325.214508 166.796616,311.072906 167.004364,296.936401 C167.082138,291.644897 167.267288,286.183319 168.594162,281.110687 C175.363968,255.229874 192.527435,240.148331 218.655731,234.311554 C218.160202,233.300613 217.672714,232.306091 216.854996,230.678619 M390.123993,309.500000 C390.124176,297.841400 390.114899,286.182770 390.129242,274.524170 C390.134827,269.999054 391.084198,265.861511 395.408539,263.415619 C402.412415,259.454102 410.045990,264.580292 410.091797,273.471405 C410.196472,293.790131 410.126678,314.109772 410.127747,334.429047 C410.127838,336.202515 410.127808,337.975983 410.127808,339.902100 C416.022705,339.902100 421.267456,339.902100 427.000000,339.902100 C427.000000,338.018433 427.000000,336.395630 427.000000,334.772858 C427.000000,309.790131 427.034729,284.807343 426.990356,259.824707 C426.944153,233.802475 409.541351,216.382706 383.402954,216.246185 C365.748993,216.153976 348.089630,216.004547 330.442230,216.357315 C324.713165,216.471863 318.778473,217.389145 313.357910,219.198090 C305.599091,221.787338 298.743469,226.124664 295.264862,234.372681 C324.404572,240.930923 343.335114,259.885620 346.465973,287.487854 C348.033661,301.309113 346.956573,315.430969 347.063232,329.416931 C347.089508,332.861389 347.067169,336.306213 347.067169,339.791504 C361.725037,339.791504 375.764893,339.791504 390.124115,339.791504 C390.124115,329.777802 390.124115,320.138916 390.123993,309.500000 M130.860870,173.465652 C132.830551,184.923981 140.647476,193.338654 151.551971,195.739029 C161.859131,198.007874 173.106842,193.648102 179.051483,184.678802 C185.196335,175.407440 185.263687,165.122986 182.366959,154.927414 C179.608765,145.219437 172.673187,139.158417 162.831787,136.986633 C152.760956,134.764236 144.078827,137.738434 137.162048,145.394287 C130.062653,153.252289 129.690628,162.780731 130.860870,173.465652 M383.662720,164.675995 C383.465393,162.525085 383.368286,160.359421 383.054352,158.225662 C381.095490,144.911331 367.474792,134.669617 354.149414,136.475998 C342.656006,138.034073 334.432953,144.224884 331.530090,155.370453 C328.264862,167.907410 328.791046,180.316055 339.592834,189.789413 C346.583282,195.920151 354.856323,197.650009 363.801270,195.224518 C376.952698,191.658371 383.581024,181.609482 383.662720,164.675995 M278.171753,221.674881 C286.901398,210.694443 285.774780,191.159897 275.665161,181.453186 C268.549744,174.621399 259.986420,172.242416 250.409012,174.726349 C238.428955,177.833435 231.583939,187.110611 230.155258,200.125259 C228.573990,214.529861 237.177933,227.471512 246.435989,231.610397 C257.184509,236.415543 272.732605,232.972000 278.171753,221.674881 z"/>
  <path fill="#000000" opacity="1.000000" stroke="none" d=" M483.632507,420.115051 C481.491516,420.487335 479.755280,420.961578 478.017731,420.966553 C459.223755,421.020172 440.429565,421.000000 421.000000,421.000000 C421.000000,422.902008 421.000000,424.656372 421.000000,426.410736 C421.000000,443.887054 421.010223,461.363373 420.994659,478.839691 C420.988953,485.244812 417.347107,488.971008 411.145935,489.000000 C404.585449,489.030670 401.006622,485.394379 401.003723,478.632263 C400.993988,455.829834 400.993774,433.027405 401.004333,410.224976 C401.007019,404.441956 404.434235,401.007355 410.207092,401.004547 C432.676636,400.993530 455.147491,401.130829 477.614746,400.902954 C482.866974,400.849701 486.615967,402.526184 488.653687,407.214966 C490.584869,411.658508 488.780884,416.112122 483.632507,420.115051 z"/>
  <path fill="#000000" opacity="1.000000" stroke="none" d=" M440.930908,454.440125 C435.578430,452.719513 434.152008,448.555359 434.481445,444.238098 C434.965759,437.891205 438.943329,433.944458 444.663177,434.206329 C448.919250,434.401184 452.931000,436.187958 454.571136,441.007904 C456.042175,445.330994 454.949432,451.242798 451.025055,453.190247 C448.195007,454.594635 444.516327,454.288818 440.930908,454.440125 z"/>
  <path fill="#61CC4C" opacity="1.000000" stroke="none" d=" M256.000000,377.872345 C245.193756,377.872314 234.887512,377.872314 224.022003,377.872314 C223.909500,375.827301 223.731674,374.081085 223.729889,372.334686 C223.709961,352.844025 223.731934,333.353363 223.694717,313.862762 C223.690933,311.880920 223.550034,309.865540 223.170868,307.924652 C222.102234,302.454742 218.324905,299.511230 212.973129,299.778931 C207.890518,300.033173 203.978592,303.685852 203.876373,309.146667 C203.636307,321.968750 203.736771,334.797424 203.717087,347.623413 C203.702057,357.426483 203.714096,367.229584 203.714096,377.450012 C198.091553,377.450012 192.881165,377.450012 186.935669,377.450012 C186.935669,375.768188 186.935654,374.011627 186.935669,372.255096 C186.935837,347.433655 186.914627,322.612213 186.941956,297.790802 C186.971329,271.103455 203.996017,253.979874 230.556198,253.924988 C248.380905,253.888153 266.205963,253.865097 284.030487,253.931412 C309.704041,254.026932 326.977448,271.254852 327.047821,296.878235 C327.117340,322.199249 327.063812,347.520599 327.064209,372.841797 C327.064240,374.312073 327.064240,375.782318 327.064240,377.557129 C321.412903,377.557129 316.173706,377.557129 310.227539,377.557129 C310.227539,375.707367 310.227692,373.940186 310.227539,372.173004 C310.226044,351.849396 310.274292,331.525635 310.197327,311.202301 C310.168396,303.564423 306.067810,299.316193 299.506805,299.814392 C295.014893,300.155426 292.066010,302.584869 290.983093,306.913055 C290.425842,309.140320 290.259705,311.514221 290.253174,313.822815 C290.198486,333.146729 290.222046,352.470886 290.221985,371.794952 C290.221985,373.602142 290.221985,375.409332 290.221985,377.872375 C278.708862,377.872375 267.604431,377.872375 256.000000,377.872345 z"/>
  <path fill="#61CC4D" opacity="1.000000" stroke="none" d=" M217.020111,230.995087 C217.672714,232.306091 218.160202,233.300613 218.655731,234.311554 C192.527435,240.148331 175.363968,255.229874 168.594162,281.110687 C167.267288,286.183319 167.082138,291.644897 167.004364,296.936401 C166.796616,311.072906 166.933624,325.214508 166.933624,339.760620 C152.610321,339.760620 138.577484,339.760620 123.876183,339.760620 C123.876183,332.185242 123.912857,324.584442 123.852776,316.984344 C123.835800,314.837219 123.774170,312.640350 123.319153,310.556641 C122.144951,305.179657 117.967209,302.050537 112.981247,302.541473 C107.840614,303.047638 104.172447,306.697052 103.987061,312.170471 C103.739090,319.491486 103.890526,326.826111 103.872559,334.154877 C103.868149,335.953918 103.871902,337.752960 103.871902,339.849854 C98.158958,339.849854 92.915489,339.849854 87.337273,339.849854 C87.226273,338.594391 87.015945,337.318298 87.014999,336.042114 C86.995995,310.223114 86.908325,284.403717 87.030800,258.585297 C87.127007,238.305481 98.762321,222.991684 118.028313,217.805252 C121.988976,216.739044 126.229958,216.334030 130.347733,216.297333 C148.169739,216.138474 165.995453,216.089157 183.816925,216.276215 C196.774155,216.412231 208.457077,219.884018 217.020111,230.995087 M122.824974,276.064575 C125.045639,267.431610 119.273521,260.357208 111.613739,262.415497 C107.183220,263.606049 104.446487,266.490540 104.000549,271.172913 C103.563148,275.765686 106.107231,279.601593 110.502510,281.248108 C115.014076,282.938171 118.646820,281.558624 122.824974,276.064575 z"/>
  <path fill="#61CC4C" opacity="1.000000" stroke="none" d=" M390.124054,310.000000 C390.124115,320.138916 390.124115,329.777802 390.124115,339.791504 C375.764893,339.791504 361.725037,339.791504 347.067169,339.791504 C347.067169,336.306213 347.089508,332.861389 347.063232,329.416931 C346.956573,315.430969 348.033661,301.309113 346.465973,287.487854 C343.335114,259.885620 324.404572,240.930923 295.264862,234.372681 C298.743469,226.124664 305.599091,221.787338 313.357910,219.198090 C318.778473,217.389145 324.713165,216.471863 330.442230,216.357315 C348.089630,216.004547 365.748993,216.153976 383.402954,216.246185 C409.541351,216.382706 426.944153,233.802475 426.990356,259.824707 C427.034729,284.807343 427.000000,309.790131 427.000000,334.772858 C427.000000,336.395630 427.000000,338.018433 427.000000,339.902100 C421.267456,339.902100 416.022705,339.902100 410.127808,339.902100 C410.127808,337.975983 410.127838,336.202515 410.127747,334.429047 C410.126678,314.109772 410.196472,293.790131 410.091797,273.471405 C410.045990,264.580292 402.412415,259.454102 395.408539,263.415619 C391.084198,265.861511 390.134827,269.999054 390.129242,274.524170 C390.114899,286.182770 390.124176,297.841400 390.124054,310.000000 z"/>
  <path fill="#FDD3A9" opacity="1.000000" stroke="none" d=" M130.820694,173.036713 C129.690628,162.780731 130.062653,153.252289 137.162048,145.394287 C144.078827,137.738434 152.760956,134.764236 162.831787,136.986633 C172.673187,139.158417 179.608765,145.219437 182.366959,154.927414 C185.263687,165.122986 185.196335,175.407440 179.051483,184.678802 C173.106842,193.648102 161.859131,198.007874 151.551971,195.739029 C140.647476,193.338654 132.830551,184.923981 130.820694,173.036713 z"/>
  <path fill="#FDD3A9" opacity="1.000000" stroke="none" d=" M383.662964,165.122101 C383.581024,181.609482 376.952698,191.658371 363.801270,195.224518 C354.856323,197.650009 346.583282,195.920151 339.592834,189.789413 C328.791046,180.316055 328.264862,167.907410 331.530090,155.370453 C334.432953,144.224884 342.656006,138.034073 354.149414,136.475998 C367.474792,134.669617 381.095490,144.911331 383.054352,158.225662 C383.368286,160.359421 383.465393,162.525085 383.662964,165.122101 z"/>
  <path fill="#FDD3A9" opacity="1.000000" stroke="none" d=" M277.988464,221.986023 C272.732605,232.972000 257.184509,236.415543 246.435989,231.610397 C237.177933,227.471512 228.573990,214.529861 230.155258,200.125259 C231.583939,187.110611 238.428955,177.833435 250.409012,174.726349 C259.986420,172.242416 268.549744,174.621399 275.665161,181.453186 C285.774780,191.159897 286.901398,210.694443 277.988464,221.986023 z"/>
  <path fill="#030502" opacity="1.000000" stroke="none" d=" M122.632629,276.389648 C118.646820,281.558624 115.014076,282.938171 110.502510,281.248108 C106.107231,279.601593 103.563148,275.765686 104.000549,271.172913 C104.446487,266.490540 107.183220,263.606049 111.613739,262.415497 C119.273521,260.357208 125.045639,267.431610 122.632629,276.389648 z"/>
</svg>